<?xml version="1.0" encoding="UTF-8"?>
<svg version="1.1" xmlns="http://www.w3.org/2000/svg" width="94" height="33">
<path d="M0 0 C0.495 1.98 0.495 1.98 1 4 C1.6290625 3.69964844 2.258125 3.39929688 2.90625 3.08984375 C8.87390862 0.43854963 12.62981852 -0.69871506 19 1 C22.09247728 2.77531103 24.48736187 4.48736187 27 7 C27.45375 6.195625 27.9075 5.39125 28.375 4.5625 C30 2 30 2 32 1 C40.39097744 0.59398496 40.39097744 0.59398496 44 3 C44.66 2.34 45.32 1.68 46 1 C50.57032175 0.55046016 52.89674879 0.35243951 56.875 2.6875 C61.74883855 7.99138313 61.35223417 13.7194444 61.265625 20.59765625 C60.93168963 24.87497545 60.15989198 28.84010802 57 32 C54.66706666 32.04320247 52.3329866 32.04022391 50 32 C49.01 32 48.02 32 47 32 C43.33333333 32 39.66666667 32 36 32 C35.030625 32.061875 34.06125 32.12375 33.0625 32.1875 C29.65566529 31.97891828 28.46363192 31.27412177 26 29 C25.505 30.485 25.505 30.485 25 32 C22.36 32 19.72 32 17 32 C16.34 30.02 15.68 28.04 15 26 C14.01 26.33 13.02 26.66 12 27 C10.78130071 29.50447516 10.78130071 29.50447516 10 32 C6.33333333 32 2.66666667 32 -1 32 C-2.93490768 32.04638355 -4.8698017 32.09333777 -6.8046875 32.140625 C-9.16144545 32.17790705 -11.51821711 32.21432977 -13.875 32.25 C-15.05964844 32.28351562 -16.24429687 32.31703125 -17.46484375 32.3515625 C-18.60824219 32.36445312 -19.75164063 32.37734375 -20.9296875 32.390625 C-21.97366699 32.41157227 -23.01764648 32.43251953 -24.09326172 32.45410156 C-27.75750958 31.88165901 -29.38903 30.58702686 -32 28 C-33.32798292 24.01605124 -33.22332082 20.35945725 -33.25 16.1875 C-33.270625 15.39279297 -33.29125 14.59808594 -33.3125 13.77929688 C-33.34541977 8.80429605 -32.89409607 5.24467423 -30 1 C-26.40401658 -0.11148579 -24.24216056 -0.60125857 -20.796875 1.06640625 C-18.130276 3.93589866 -18.5714922 6.15974179 -18.6875 10 C-18.71199219 11.2375 -18.73648437 12.475 -18.76171875 13.75 C-19 17 -19 17 -20 20 C-16.7 20 -13.4 20 -10 20 C-9.608125 18.576875 -9.21625 17.15375 -8.8125 15.6875 C-8.59207031 14.88699219 -8.37164063 14.08648437 -8.14453125 13.26171875 C-8.09683594 12.51535156 -8.04914062 11.76898438 -8 11 C-9.4336036 9.41534848 -9.4336036 9.41534848 -11 8 C-10.875 4.4375 -10.875 4.4375 -10 1 C-6.1496895 -1.56687367 -4.41430237 -0.83288724 0 0 Z M13 12 C12.01 12.495 12.01 12.495 11 13 C11 14.32 11 15.64 11 17 C11.99 17.33 12.98 17.66 14 18 C14.66 17.67 15.32 17.34 16 17 C15.65213292 15.02463255 15.65213292 15.02463255 15 13 C14.34 12.67 13.68 12.34 13 12 Z M37 19 C36.67 19.66 36.34 20.32 36 21 C36.89163577 23.11683841 36.89163577 23.11683841 38 25 C38 23.02 38 21.04 38 19 C37.67 19 37.34 19 37 19 Z " fill="#090909" transform="translate(33,1)"/>
<path d="M0 0 C0.1546875 0.9590625 0.1546875 0.9590625 0.3125 1.9375 C0.6528125 2.9584375 0.6528125 2.9584375 1 4 C1.99 4.33 2.98 4.66 4 5 C3.525625 5.391875 3.05125 5.78375 2.5625 6.1875 C-0.51603498 9.75860058 -0.15887246 14.53362326 -0.1875 19.0625 C-0.20167969 20.08472656 -0.21585938 21.10695313 -0.23046875 22.16015625 C0.00126602 25.01559997 0.38440487 26.65054132 2 29 C4.55519921 29.81171228 4.55519921 29.81171228 7 30 C7.66 28.35 8.32 26.7 9 25 C11.31 25 13.62 25 16 25 C15.505 26.485 15.505 26.485 15 28 C15 27.34 15 26.68 15 26 C14.01 26.33 13.02 26.66 12 27 C10.78130071 29.50447516 10.78130071 29.50447516 10 32 C6.33333333 32 2.66666667 32 -1 32 C-2.93490768 32.04638355 -4.8698017 32.09333777 -6.8046875 32.140625 C-9.16144545 32.17790705 -11.51821711 32.21432977 -13.875 32.25 C-15.05964844 32.28351562 -16.24429687 32.31703125 -17.46484375 32.3515625 C-18.60824219 32.36445312 -19.75164063 32.37734375 -20.9296875 32.390625 C-21.97366699 32.41157227 -23.01764648 32.43251953 -24.09326172 32.45410156 C-27.75750958 31.88165901 -29.38903 30.58702686 -32 28 C-33.32798292 24.01605124 -33.22332082 20.35945725 -33.25 16.1875 C-33.270625 15.39279297 -33.29125 14.59808594 -33.3125 13.77929688 C-33.34541977 8.80429605 -32.89409607 5.24467423 -30 1 C-26.40401658 -0.11148579 -24.24216056 -0.60125857 -20.796875 1.06640625 C-18.130276 3.93589866 -18.5714922 6.15974179 -18.6875 10 C-18.71199219 11.2375 -18.73648437 12.475 -18.76171875 13.75 C-19 17 -19 17 -20 20 C-16.7 20 -13.4 20 -10 20 C-9.608125 18.576875 -9.21625 17.15375 -8.8125 15.6875 C-8.59207031 14.88699219 -8.37164063 14.08648437 -8.14453125 13.26171875 C-8.09683594 12.51535156 -8.04914062 11.76898438 -8 11 C-9.4336036 9.41534848 -9.4336036 9.41534848 -11 8 C-10.875 4.4375 -10.875 4.4375 -10 1 C-6.1496895 -1.56687367 -4.41430237 -0.83288724 0 0 Z " fill="#070707" transform="translate(33,1)"/>
<path d="M0 0 C0.99 0.66 1.98 1.32 3 2 C3.51171875 4.6015625 3.51171875 4.6015625 3.6875 7.625 C3.78611328 9.12933594 3.78611328 9.12933594 3.88671875 10.6640625 C3.92410156 11.43492188 3.96148437 12.20578125 4 13 C5.65 13 7.3 13 9 13 C9.33 9.04 9.66 5.08 10 1 C11.32 1 12.64 1 14 1 C13.8858134 2.93816735 13.75826577 4.87555099 13.625 6.8125 C13.55539063 7.89144531 13.48578125 8.97039063 13.4140625 10.08203125 C13 13 13 13 11 16 C8.2539049 16.13076643 5.72350533 16.14561316 3 16 C1.01984674 16 -0.96136826 16.06136393 -2.9375 16.1875 C-6.34433471 15.97891828 -7.53636808 15.27412177 -10 13 C-10.33 13.99 -10.66 14.98 -11 16 C-13.64 16 -16.28 16 -19 16 C-19 15.01 -19 14.02 -19 13 C-17.35 13.33 -15.7 13.66 -14 14 C-12.68 12.02 -11.36 10.04 -10 8 C-9.1646875 9.2065625 -9.1646875 9.2065625 -8.3125 10.4375 C-5.71510215 13.31569762 -4.69097893 13.4674707 -1 14 C-1.01160156 13.07316406 -1.02320312 12.14632813 -1.03515625 11.19140625 C-1.04417969 9.99386719 -1.05320312 8.79632813 -1.0625 7.5625 C-1.07410156 6.36753906 -1.08570312 5.17257813 -1.09765625 3.94140625 C-1 1 -1 1 0 0 Z M1 3 C0.67 3.66 0.34 4.32 0 5 C0.89163577 7.11683841 0.89163577 7.11683841 2 9 C2 7.02 2 5.04 2 3 C1.67 3 1.34 3 1 3 Z " fill="#F0F0F0" transform="translate(69,17)"/>
<path d="M0 0 C0.103125 0.639375 0.20625 1.27875 0.3125 1.9375 C0.6528125 2.9584375 0.6528125 2.9584375 1 4 C1.99 4.33 2.98 4.66 4 5 C3.54625 5.350625 3.0925 5.70125 2.625 6.0625 C0.35338666 8.77096206 -0.16798854 11.60795328 -1 15 C-4.52486049 14.11878488 -6.71313409 13.25744376 -9.4375 10.8125 C-11.51372129 7.07530167 -11.14791189 5.05595534 -10 1 C-6.1496895 -1.56687367 -4.41430237 -0.83288724 0 0 Z " fill="#EBEBEB" transform="translate(33,1)"/>
<path d="M0 0 C2.5 1 2.5 1 4 2 C4.66 1.34 5.32 0.68 6 0 C10.57032175 -0.44953984 12.89674879 -0.64756049 16.875 1.6875 C21.74883855 6.99138313 21.35223417 12.7194444 21.265625 19.59765625 C20.93168963 23.87497545 20.15989198 27.84010802 17 31 C14.66702567 31.04092937 12.33294775 31.04241723 10 31 C10 30.01 10 29.02 10 28 C11.32 28.33 12.64 28.66 14 29 C17.65019264 22.84029991 18.96069015 18.15431607 18 11 C17.24893614 8.08663765 16.29819754 5.74618711 15 3 C12.2201184 1.6100592 10.0813674 1.81511796 7 2 C3.79523376 3.20744944 3.79523376 3.20744944 2 6 C1.608125 5.34 1.21625 4.68 0.8125 4 C-0.83781037 1.7831009 -0.83781037 1.7831009 -3.4375 1.5 C-6.70794173 2.13813497 -7.80240256 3.57506489 -10 6 C-10.66 6 -11.32 6 -12 6 C-11.6875 4.125 -11.6875 4.125 -11 2 C-7.29598872 -0.46934085 -4.29412135 -0.44928433 0 0 Z " fill="#F4F4F4" transform="translate(73,2)"/>
<path d="M0 0 C1.53746589 4.57664266 1.01520816 9.40030899 0.87304688 14.15625 C0.78745902 19.39486387 0.78745902 19.39486387 3 24 C7.78903512 26.90244552 13.78776858 26.68120447 19.13671875 25.546875 C20.77313716 25.082172 22.38963357 24.54820985 24 24 C24 24.66 24 25.32 24 26 C25.65 25.67 27.3 25.34 29 25 C29.33 24.01 29.66 23.02 30 22 C30.66 22 31.32 22 32 22 C32.928125 23.0209375 32.928125 23.0209375 33.875 24.0625 C34.926875 25.0215625 34.926875 25.0215625 36 26 C38.21858253 25.86358623 38.21858253 25.86358623 40 25 C40.33 23.68 40.66 22.36 41 21 C43.31 21 45.62 21 48 21 C47.505 22.485 47.505 22.485 47 24 C47 23.34 47 22.68 47 22 C46.01 22.33 45.02 22.66 44 23 C42.78130071 25.50447516 42.78130071 25.50447516 42 28 C38.33333333 28 34.66666667 28 31 28 C29.06509232 28.04638355 27.1301983 28.09333777 25.1953125 28.140625 C22.83855455 28.17790705 20.48178289 28.21432977 18.125 28.25 C16.94035156 28.28351562 15.75570313 28.31703125 14.53515625 28.3515625 C12.82005859 28.37089844 12.82005859 28.37089844 11.0703125 28.390625 C10.02633301 28.41157227 8.98235352 28.43251953 7.90673828 28.45410156 C4.24249042 27.88165901 2.61097 26.58702686 0 24 C-0.90683762 21.27948714 -1.12842547 19.67266994 -1.1328125 16.875 C-1.13410156 16.08609375 -1.13539062 15.2971875 -1.13671875 14.484375 C-1.13285156 13.66453125 -1.12898437 12.8446875 -1.125 12 C-1.12886719 11.18015625 -1.13273438 10.3603125 -1.13671875 9.515625 C-1.13542969 8.72671875 -1.13414063 7.9378125 -1.1328125 7.125 C-1.13168457 6.40570312 -1.13055664 5.68640625 -1.12939453 4.9453125 C-1 3 -1 3 0 0 Z " fill="#DEDEDE" transform="translate(1,5)"/>
<path d="M0 0 C2 2 2 2 2.23046875 5.15234375 C2.20919922 7.02599609 2.20919922 7.02599609 2.1875 8.9375 C2.17783203 10.80728516 2.17783203 10.80728516 2.16796875 12.71484375 C2 16 2 16 1 19 C4.3 19 7.6 19 11 19 C11.99 15.535 11.99 15.535 13 12 C14.27351308 14.54702616 13.80191925 15.4282945 13.0625 18.125 C12.86785156 18.84945313 12.67320313 19.57390625 12.47265625 20.3203125 C12.31667969 20.87460937 12.16070313 21.42890625 12 22 C11.01 21.67 10.02 21.34 9 21 C7.10787263 20.77820215 5.21115528 20.59385985 3.3125 20.4375 C2.31863281 20.35371094 1.32476562 20.26992188 0.30078125 20.18359375 C-0.83810547 20.09271484 -0.83810547 20.09271484 -2 20 C-1.835 19.0925 -1.67 18.185 -1.5 17.25 C-0.71126689 11.86217525 -0.91974077 6.43087444 -1 1 C-5.64586892 1.48484276 -5.64586892 1.48484276 -10 3 C-9.67 2.01 -9.34 1.02 -9 0 C-5.88135455 -1.55932272 -3.33704665 -0.65549131 0 0 Z " fill="#E0E0E0" transform="translate(12,2)"/>
<path d="M0 0 C3.625 -0.1875 3.625 -0.1875 7 0 C7.125 2.875 7.125 2.875 7 6 C5 8 5 8 2.375 8.125 C1.59125 8.08375 0.8075 8.0425 0 8 C-1.125 5.6875 -1.125 5.6875 -2 3 C-1.34 2.01 -0.68 1.02 0 0 Z " fill="#060606" transform="translate(25,2)"/>
<path d="M0 0 C2.5 1 2.5 1 4 2 C4.66 1.34 5.32 0.68 6 0 C9.125 -0.125 9.125 -0.125 12 0 C12 0.33 12 0.66 12 1 C9 2 6 3 3 4 C2.67 4.66 2.34 5.32 2 6 C1.608125 5.34 1.21625 4.68 0.8125 4 C-0.83781037 1.7831009 -0.83781037 1.7831009 -3.4375 1.5 C-6.70794173 2.13813497 -7.80240256 3.57506489 -10 6 C-10.66 6 -11.32 6 -12 6 C-11.6875 4.125 -11.6875 4.125 -11 2 C-7.29598872 -0.46934085 -4.29412135 -0.44928433 0 0 Z " fill="#A3A3A3" transform="translate(73,2)"/>
<path d="M0 0 C2.625 -0.1875 2.625 -0.1875 5 0 C5 0.99 5 1.98 5 3 C3.68 2.67 2.36 2.34 1 2 C1 3.32 1 4.64 1 6 C2.65 6 4.3 6 6 6 C5.67 6.66 5.34 7.32 5 8 C2.03 7.505 2.03 7.505 -1 7 C-1.625 5.1875 -1.625 5.1875 -2 3 C-1.34 2.01 -0.68 1.02 0 0 Z " fill="#E0E0E0" transform="translate(43,12)"/>
<path d="M0 0 C2.31 0 4.62 0 7 0 C6.67 0.99 6.34 1.98 6 3 C6 2.34 6 1.68 6 1 C5.01 1.33 4.02 1.66 3 2 C1.78130071 4.50447516 1.78130071 4.50447516 1 7 C-0.98 7 -2.96 7 -5 7 C-4.360625 6.5875 -3.72125 6.175 -3.0625 5.75 C-0.79009069 3.82189513 -0.39803561 2.88575819 0 0 Z " fill="#FFFFFF" transform="translate(42,26)"/>
<path d="M0 0 C2.31 0.33 4.62 0.66 7 1 C7.103125 1.639375 7.20625 2.27875 7.3125 2.9375 C7.539375 3.618125 7.76625 4.29875 8 5 C8.99 5.33 9.98 5.66 11 6 C7.125 8 7.125 8 6 8 C6 6.02 6 4.04 6 2 C4.02 2 2.04 2 0 2 C0 1.34 0 0.68 0 0 Z " fill="#BEBEBE" transform="translate(26,0)"/>
<path d="M0 0 C2.0625 0.4375 2.0625 0.4375 4 1 C2.71034824 2.37562854 1.37310707 3.70766393 0 5 C-0.66 5 -1.32 5 -2 5 C-1.125 1.125 -1.125 1.125 0 0 Z " fill="#767676" transform="translate(63,3)"/>
</svg>
